PathFileType	4	(X/Y/Z)	7_coords_data.trc
DataRate	CameraRate	NumFrames	NumMarkers	Units	OrigDataRate	OrigDataStartFrame	OrigNumFrames
30.0	30.0	7	21	m	30.0	32	62
Frame#	Time	THUMB_TIP	THUMB_IP	THUMB_MCP	THUMB_CMC	INDEX_TIP	INDEX_DIP	INDEX_PIP	INDEX_MCP	MIDDLE_TIP	MIDDLE_DIP	MIDDLE_PIP	MIDDLE_MCP	RING_TIP	RING_DIP	RING_PIP	RING_MCP	PINKY_TIP	PINKY_DIP	PINKY_PIP	PINKY_MCP	WRIST
X1	Y1	Z1	X2	Y2	Z2	X3	Y3	Z3	X4	Y4	Z4	X5	Y5	Z5	X6	Y6	Z6	X7	Y7	Z7	X8	Y8	Z8	X9	Y9	Z9	X10	Y10	Z10	X11	Y11	Z11	X12	Y12	Z12	X13	Y13	Z13	X14	Y14	Z14	X15	Y15	Z15	X16	Y16	Z16	X17	Y17	Z17	X18	Y18	Z18	X19	Y19	Z19	X20	Y20	Z20	X21	Y21	Z21
31	1.0333333333333334	-0.045510799407958984	-0.060209300994873045	0.9866640014648438	-0.03595999908447266	-0.03918399810791016	1.0010900268554688	-0.03508060073852539	-0.024247499465942384	1.025949951171875	-0.035925098419189457	0.006022459983825683	1.0469100341796875	-0.026411500930786133	0.000749417006969451	1.0166799926757812	-0.009803950309753418	0.005460659980773926	1.00747998046875	-0.007503220081329346	0.008187470436096191	0.9847420043945313	-0.04484909820556641	0.0012013000249862672	0.9890490112304687	-0.023139699935913086	0.015817999839782715	1.025280029296875	-0.01186299991607666	0.022444900512695314	1.0179099731445314	-0.006232890129089355	0.029965599060058593	0.99285400390625	-0.04616389846801758	0.02562100028991699	0.986844970703125	-0.031328100204467774	0.028832700729370116	1.033260009765625	-0.017260200500488283	0.037675701141357425	1.026239990234375	-0.011198300361633301	0.04816049957275391	1.0056599731445313	-0.04860359954833984	0.045927799224853516	0.9957329711914062	-0.03457709884643555	0.04256689834594726	1.038219970703125	-0.020942100524902342	0.05091680145263672	1.0334000244140624	-0.01908060073852539	0.060660900115966795	1.01872998046875	-0.048560001373291015	0.06127510070800781	1.009510009765625	-0.05824160003662109	0.02938319969177246	1.0621300048828124
32	1.0666666666666667	-0.04533689880371094	-0.06012720108032227	0.986635986328125	-0.035790599822998044	-0.039101600646972656	1.0010900268554688	-0.03490739822387695	-0.02416710090637207	1.02593994140625	-0.035768001556396485	0.006078770160675049	1.0469200439453126	-0.02610460090637207	0.0006986740231513971	1.0166300048828125	-0.00964774990081787	0.005417590141296387	1.007469970703125	-0.007264309883117675	0.008226149559020996	0.9847760009765625	-0.04458549880981445	0.001231340050697326	0.9891010131835938	-0.02299020004272461	0.015722299575805666	1.02522998046875	-0.011616399765014648	0.022419500350952148	1.018010009765625	-0.005915540218353272	0.029952800750732422	0.99343798828125	-0.04596580123901367	0.025679800033569337	0.98689599609375	-0.031099199295043945	0.0288346004486084	1.03327001953125	-0.017028099060058595	0.037688301086425784	1.02625	-0.011012900352478027	0.048268199920654294	1.0056900024414062	-0.048375	0.045969898223876954	0.9957160034179687	-0.03409209823608399	0.0427484016418457	1.038989990234375	-0.02077960014343262	0.05093629837036133	1.0333599853515625	-0.01889609909057617	0.06064879989624023	1.0186900024414063	-0.04843069839477539	0.06132339859008789	1.0095499877929688	-0.05802059936523438	0.029521799087524413	1.0621800537109376
33	1.1	-0.045149600982666016	-0.05997510147094726	0.9865780029296874	-0.03564569854736328	-0.03894670104980469	1.0010599975585937	-0.03474530029296875	-0.024058799743652343	1.0259300537109375	-0.03556760025024414	0.00615045976638794	1.0469200439453126	-0.025862800598144532	0.000759413003921508	1.0165599975585937	-0.009563380241394043	0.005455739974975586	1.0073099975585937	-0.007206669807434082	0.008240819931030274	0.9846890258789063	-0.044489898681640626	0.0012667800188064572	0.989114990234375	-0.02238719940185547	0.01592199993133545	1.0250699462890625	-0.011470100402832032	0.02244610023498535	1.0178699951171875	-0.005867599964141846	0.02997509956359863	0.9929390258789063	-0.04587200164794922	0.025725900650024416	0.986906982421875	-0.030798500061035156	0.02898520088195801	1.0331700439453124	-0.016830999374389647	0.03771839904785156	1.0261600341796875	-0.010788200378417968	0.04822480010986328	1.0055599975585938	-0.04825949859619141	0.04609629821777344	0.9959450073242188	-0.03381639862060547	0.04274779891967773	1.0389200439453126	-0.020618400573730468	0.05096099853515625	1.0333900146484376	-0.018739900588989257	0.06076300048828125	1.0184000244140625	-0.048318599700927736	0.0613828010559082	1.0096099853515625	-0.05779690170288086	0.029513799667358398	1.0620899658203125
34	1.1333333333333333	-0.04520019912719726	-0.05974539947509765	0.986322021484375	-0.035642601013183596	-0.038727199554443356	1.0009299926757813	-0.034721099853515625	-0.02399769973754883	1.0258599853515624	-0.035468700408935544	0.006099420070648193	1.0469300537109374	-0.02590480041503906	0.0007936130166053771	1.0169000244140625	-0.009563529968261719	0.005383259773254393	1.0071500244140625	-0.007330659866333008	0.0081706600189209	0.9845390014648437	-0.044658100128173825	0.001285760045051574	0.9890659790039062	-0.022552200317382812	0.015871500015258787	1.0251600341796876	-0.01142080020904541	0.02241469955444336	1.0176699829101563	-0.0059036102294921875	0.029912500381469725	0.9928189697265625	-0.04587459945678711	0.02573740005493164	0.986926025390625	-0.030932899475097655	0.02891699981689453	1.03302001953125	-0.016815099716186523	0.0376771011352539	1.0260899658203124	-0.010736100196838379	0.04816680145263672	1.0055	-0.0482666015625	0.04607120132446289	0.9958909912109375	-0.034169898986816404	0.04273659896850586	1.0386199951171875	-0.020550500869750975	0.05088059997558594	1.0332900390625	-0.018677799224853516	0.06062870025634766	1.0184199829101563	-0.04828680038452148	0.06134799957275391	1.0096500244140625	-0.057717899322509765	0.029445199966430663	1.0620899658203125
35	1.1666666666666667	-0.045379798889160154	-0.05926940155029297	0.9856090087890625	-0.035864700317382814	-0.03837239837646484	1.0003699951171876	-0.03478559875488281	-0.023843000411987305	1.0255799560546874	-0.035444698333740234	0.00603518009185791	1.0467900390625	-0.025844699859619142	0.0007381600141525261	1.0163900146484375	-0.009711930274963379	0.00536313009262085	1.0067999877929688	-0.007691400051116943	0.00813074016571045	0.9842210083007813	-0.045023700714111325	0.001337769985198974	0.9890040283203125	-0.022846500396728517	0.015652099609375	1.024780029296875	-0.011512200355529785	0.022358699798583983	1.0173099975585937	-0.006133880138397217	0.029909799575805664	0.9927080078125	-0.046220600128173826	0.02579170036315918	0.9869630126953125	-0.030741199493408203	0.0289552001953125	1.0329200439453126	-0.016826799392700195	0.03757379913330078	1.0258499755859376	-0.010913599967956543	0.04818009948730469	1.0050700073242187	-0.04846870040893555	0.04609460067749024	0.9959730224609376	-0.03405749893188476	0.042490001678466796	1.03847998046875	-0.020511999130249023	0.05071799850463867	1.03325	-0.01868090057373047	0.06049570083618164	1.0183800048828124	-0.048389598846435546	0.061298698425292966	1.0097000122070312	-0.05759809875488281	0.029263599395751953	1.0620400390625
36	1.2	-0.04587739944458008	-0.058729000091552734	0.9847440185546875	-0.036341201782226565	-0.03796319961547852	0.9996939697265625	-0.035043598175048825	-0.023684499740600586	1.0250799560546875	-0.03556159973144531	0.0060267200469970705	1.046489990234375	-0.026163200378417968	0.0007013530135154721	1.0155700073242186	-0.010047300338745117	0.005372250080108642	1.0063400268554688	-0.008354100227355957	0.008247960090637206	0.9833699951171875	-0.04562820053100586	0.0014064899682998651	0.9887849731445313	-0.02304599952697754	0.015686599731445313	1.0244300537109374	-0.011805000305175782	0.02233989906311035	1.0168699951171876	-0.006689239978790283	0.029981800079345703	0.992072021484375	-0.04666159820556641	0.025890600204467772	0.9866580200195313	-0.031069000244140624	0.02878260040283203	1.032800048828125	-0.01710619926452637	0.03752619934082031	1.0255	-0.011314499855041503	0.048156299591064454	1.00452001953125	-0.048944599151611326	0.04611899948120117	0.9959210205078125	-0.033939300537109376	0.042434299468994144	1.0385400390625	-0.020769699096679688	0.05057550048828125	1.0328499755859375	-0.019008899688720705	0.06044950103759766	1.0180800170898439	-0.048773200988769534	0.06130049896240235	1.009739990234375	-0.057682098388671874	0.029278999328613282	1.0618399658203126
37	1.2333333333333334	-0.04630910110473633	-0.0585343017578125	0.984302978515625	-0.03671709823608398	-0.037837501525878905	0.9992849731445312	-0.03540309906005859	-0.023642200469970703	1.02481005859375	-0.035932998657226566	0.005911349773406982	1.04631005859375	-0.026632099151611327	0.000749382972717285	1.01575	-0.01029199981689453	0.0053988399505615235	1.0060499877929687	-0.00883782958984375	0.008196980476379394	0.982989990234375	-0.04601240158081055	0.001448220014572143	0.9884979858398437	-0.023349000930786134	0.015662099838256834	1.0241400146484374	-0.012107600212097168	0.022235599517822266	1.0167000122070313	-0.007097710132598877	0.029998199462890625	0.9920139770507812	-0.04710459899902344	0.02590340042114258	0.9866489868164062	-0.03140340042114258	0.028691999435424803	1.0325	-0.017399200439453123	0.037370899200439456	1.0253199462890625	-0.011580499649047851	0.048023399353027345	1.0044299926757811	-0.04930580139160156	0.046100101470947265	0.9958369750976562	-0.03457199859619141	0.04240250015258789	1.0385	-0.02104789924621582	0.05054520034790039	1.0326600341796874	-0.019375200271606444	0.060339000701904295	1.0178499755859376	-0.04911249923706055	0.06125270080566406	1.0096099853515625	-0.05806719970703125	0.029020700454711914	1.0619300537109375
